<?xml version="1.0" encoding="utf-8"?>
<!-- Generator: Adobe Illustrator 28.0.0, SVG Export Plug-In . SVG Version: 6.00 Build 0)  -->
<svg version="1.1" id="Layer_1" xmlns="http://www.w3.org/2000/svg" xmlns:xlink="http://www.w3.org/1999/xlink" x="0px" y="0px"
	 viewBox="0 0 52.2 44.3" style="enable-background:new 0 0 52.2 44.3;" xml:space="preserve">
<style type="text/css">
	.st0{fill:#10BEAE;}
</style>
<path class="st0" d="M23.6,1.1C19.1,1.6,15,3.7,11.9,7c-3.1,3.2-5,7.3-5.5,11.7c-0.1,1-0.1,3.4,0,4.5c1.1,8.7,7.4,15.5,16,17.2
	c1.4,0.3,2,0.4,3.9,0.4c1.4,0,2,0,2.7-0.1c2.7-0.4,4.8-1.1,7.1-2.4c1-0.6,2.7-1.8,3.5-2.5l0.4-0.3l-0.3,0.3
	c-0.5,0.6-1.8,1.9-2.5,2.4c-3.5,2.9-7.5,4.6-12.1,5c-1.7,0.2-4.5-0.1-6.3-0.5c-4-0.9-7.4-2.8-10.2-5.7C5.1,33.8,3,29.4,2.4,24.6
	c-0.2-1.1-0.2-3.8,0-5c0.5-4,1.9-7.5,4.4-10.7c0.7-0.9,2.5-2.6,3.4-3.4c1-0.8,2.2-1.5,3.4-2.2c2.5-1.3,4.5-1.9,7.3-2.3
	C21.9,1,22,1,23.3,1h1.3L23.6,1.1z M29.3,1.2c0.6,0.1,0.8,0.5,0.8,0.8c0,0.2-0.1,0.4-0.1,0.5c-0.1,0.1-0.1,0.2-0.1,0.2
	c0.1,0.1-0.5,0.3-0.8,0.3c-0.3,0-0.5,0-1-0.2c-1.4-0.5-1.5-0.5-2.6-0.6c-1,0-2.3,0-3,0.2c-0.4,0.1,0.5-0.4,1.3-0.6
	c0.7-0.3,1.7-0.5,2.8-0.6C27.2,1.1,29,1.1,29.3,1.2z M40,1.5c0.7,0.2,1.1,0.8,0.7,1.4c-0.4,0.8-1.2,0.8-2.8,0.5
	c-1.4-0.4-2.8-0.3-5.1,0.3c-0.6,0.1-1.1,0.3-1.1,0.2c0,0,1.1-0.8,1.8-1C35.7,1.9,38.8,1.3,40,1.5z M26.7,4c0.5,0.2,0.6,0.4,0.7,0.7
	c0.1,0.4,0,0.8-0.5,1.2c-0.5,0.4-1.1,0.8-2.5,1.3c-1.2,0.5-1.7,0.8-1.8,1.4c0,0.2,0,0.3,0.2,0.5C23,9.4,23,9.4,23.7,9.4
	s0.9-0.1,2.1-0.8c0.8-0.6,1.6-0.8,3.2-1.3c1.8-0.5,1.9-0.6,3.6-1.4c0.7-0.4,1.7-0.8,2.1-0.9c0.6-0.2,0.8-0.3,1.5-0.3
	c0.6,0,0.8,0,1.2,0.2c0.6,0.2,1,0.6,1.1,0.8C38.7,6.2,38.3,6.5,37,7c-0.8,0.3-1.1,0.6-1,0.9c0,0.4,0.3,0.8,0.6,1.1
	c0.5,0.4,1.2,0.8,2.8,1.2c1.6,0.6,2.3,0.8,2.8,1.2c0.4,0.3,0.6,0.8,0.6,1.2c0,0.8-0.3,1.1-0.8,1.1c-0.5,0-0.8-0.3-1.1-0.8
	c-0.4-0.6-0.8-0.9-1.7-1.4c-0.5-0.3-1.2-0.7-1.6-0.9c-1.6-1.1-2.8-1.7-4.6-1.7c-1.3,0-1.9,0.2-4.2,1.6c-1.9,1.1-2.8,1.5-4,1.5
	c-0.9,0-1.7-0.1-2.8-0.6c-1.8-0.8-2.8-0.9-4.4-0.9c-1.4,0-1.8,0.1-3,0.5c-2.2,0.8-4.3,3-5.4,5.7l-0.3,0.6v-0.3
	c0-0.4,0.1-1.3,0.3-2.1c0.5-1.9,1.4-3.9,2.7-5.7c0.6-0.7,1.7-1.9,2.3-2.4c2.2-1.8,5.1-2.8,9-3.1C25.1,3.8,26.2,3.8,26.7,4z M20,14.3
	c0.6,0.3,0.9,0.9,0.7,1.4c-0.2,0.4-0.6,0.7-1,0.8c-0.6,0.2-2.8,0.9-2.8,0.9s-0.1,0-0.1,0.1c0,0-0.4,0.2-0.7,0.4
	c-0.8,0.4-1.3,0.8-1.7,1.2s-0.6,0.8-0.6,1c0.1,0.2,0.4,0.1,0.9-0.1c0.4-0.1,0.6-0.2,0.7-0.2c0.3,0.1,0.7,0.4,0.6,0.5v0.1
	c0.1,0,0.1,0.1,0,0.6c-0.1,0.6-0.7,2-0.9,1.9c0,0-0.1,0,0,0c0,0,0,0.1-0.1,0.2c-0.3,0.4-0.8,1.4-1,1.8c-0.1,0.3-0.3,0.5-0.3,0.5
	s-0.1,0,0,0.1c0,0-0.1,0.3-0.2,0.6c-0.1,0.3-0.3,0.8-0.4,1.3C13,28,13,28.1,13,29.3c0,1.2,0,1.3,0.2,2c0.1,0.4,0.3,0.8,0.4,1
	c0.1,0.2,0.2,0.4,0.1,0.5c-0.1,0.1,0,0.1,0,0.1c0.1,0,0.6,0.9,0.6,1c0,0,0,0.1,0.1,0h0.1c0,0.1,0.6,0.8,1.2,1.3
	c0.3,0.3,0.5,0.6,0.5,0.6l0,0c0,0,0.2,0.1,0.4,0.2l0.3,0.2l-0.6-0.3c-0.3-0.1-0.5-0.2-0.6-0.3c-0.3-0.1-1.1-0.7-1-0.8
	c0-0.1,0-0.1,0,0c-0.1,0.1-0.5-0.1-0.5-0.2c0,0,0-0.1-0.1-0.1s-0.4-0.2-0.4-0.3c0,0,0,0,0.1,0c0.1,0,0.1,0,0,0c0,0-0.1-0.1-0.2,0
	s-1.4-1.2-1.3-1.3c0-0.1,0-0.1,0-0.1c-0.1,0-0.6-0.6-0.6-0.7c0,0,0-0.1-0.1-0.1c0,0-0.2-0.3-0.4-0.6c-0.3-0.5-0.5-0.8-0.9-1.5
	c-0.3-0.5-0.7-1.7-0.7-1.8v-0.1c-0.1,0-0.2-0.4-0.6-1.5c-0.2-0.6-0.4-1.6-0.5-2.4c-0.2-1.4,0.1-4.4,0.3-4.3c0,0,0,0,0-0.1
	c0-0.1,0-0.3,0.1-0.4c0.1-0.2,0.1-0.4,0.2-0.4c0-0.2,0.4-0.8,0.4-0.8l0.1-0.1c0-0.3,0.6-1,0.6-0.9c0,0,0.1,0,0,0
	c-0.1-0.1,0.9-1.1,1-1.1c0,0,0.1,0,0.1-0.1c0-0.1,1.1-0.9,1.7-1.1c1.1-0.5,1.7-0.6,3.7-0.8c0.1,0,0.7,0,1.5,0
	C19.5,14.1,19.5,14.1,20,14.3z M38.1,15.4c1.7,0.1,2.8,0.3,3.4,0.5c0.9,0.4,2,1.1,2.7,1.8c0.2,0.2,0.4,0.4,0.4,0.3c0,0,0,0,0.1,0.1
	c0.6,0.8,0.7,0.8,0.7,0.9c0,0.1,0,0.1,0,0c0.1-0.1,0.1-0.1,0.2,0c0.1,0.3,0.1,0.4,0.1,0.4l0,0c0,0,0.2,0.2,0.4,0.4l0.3,0.4l0.3-0.4
	c0.2-0.2,0.3-0.4,0.3-0.4s0-0.1,0.1-0.1c0,0,0.2-0.1,0.3-0.2c0.1-0.1,0.3-0.1,0.3-0.1c0.1,0,0.1,0,0,0c-0.1-0.1,1.3-0.3,2.5-0.2
	c1.3,0,1.7,0.2,1.3,0.5c-0.1,0.1-0.1,0.1,0,0.1c0.3-0.2-0.3,0.6-0.7,0.8c-0.6,0.4-0.7,0.5-1.7,0.4c-1.1-0.1-2.1-0.1-2,0
	c0,0,0.4,0.1,0.7,0.2c0.4,0.1,0.7,0.2,0.8,0.2c0.1,0,0.1,0.1,0.1,0c0,0,0.6,0.1,0.9,0.3c0.5,0.2,0.8,0.6,1,0.8
	c0.5,0.9,0.7,3.4,0.7,7.2v1.5l0.2,0.1c0.2,0.1,0.2,0.1,0.2,0.6c0,0.6-0.2,1.2-0.6,1.3c-0.2,0.1-0.3,0.2-0.3,0.6
	c-0.1,0.8,0.2,0.7-3.9,0.8c-7.3,0.1-20.9,0.2-22.1,0.2c-0.6,0-1.7,0-2.4-0.1h-1.2l1.1-0.1c1-0.1,7.3-0.2,18.3-0.4
	c2.4,0,4.4-0.1,4.4,0c0,0,0.1-0.2,0.1-0.5v-0.5h-5.6c-3.1,0-8.6,0-12.3,0.1c-3.7,0-6.8,0-6.9,0c-0.2,0-0.2-0.1,0.2-0.2
	c0.2-0.1,0.6-0.2,0.8-0.2c0.3,0,3.6-0.1,7.4-0.2c11.1-0.1,15.8-0.2,16-0.4c0.1,0,0.1-0.1,0-0.4l0.1-0.1l-3.5-0.1
	c-6.3-0.2-7.9-0.2-10.8-0.3c-0.8,0-1.7-0.1-1.8-0.1c-0.2,0-0.3,0-0.2-0.1c0.1,0,2.8-0.1,6.2-0.2c3.3,0,6.8-0.1,7.7-0.1l1.7-0.1
	l-0.5-0.4L43,29.7h-1.6c-2.6,0-10.7-0.2-12.8-0.4l-0.9-0.1h0.8c0.5,0,3.8,0,7.4,0c6.2,0,6.5,0,6.3-0.1C42.2,29,42,28.9,42,28.9
	c-0.1-0.1-0.2-0.1-0.2-0.1s-0.2,0-0.3-0.1c-0.6-0.2-8.4-0.5-12-0.5h-2l-0.4,0.2c-0.2,0.1-0.4,0.2-0.4,0.2s-0.1,0,0,0.1
	c0,0.1-0.2,0.3-0.5,0.5c-0.3,0.2-0.5,0.4-0.6,0.5c-0.1,0.1-0.1,0.1-0.1,0c0-0.2,1.3-1.4,1.4-1.3c0,0,0.1,0,0.1-0.1
	c0-0.1,0.1-0.1,0.1,0c0.1,0.1,0.1,0.1,0.1,0c0-0.4,1.3-0.5,7.8-0.5c5.5,0,6.9,0.1,7.7,0.6c0.6,0.3,1.3,0.8,1.8,1.4
	c0.2,0.2,0.5,0.4,0.5,0.5c0.3,0.3,1.1,1.2,1.3,1.6c0.1,0.2,0.2,0.5,0.2,0.6v0.3h2.2h2.2l0.1-0.3c0.1-0.2,0.1-0.4,0.2-0.6l0.1-0.3
	h-0.8c-0.8,0-2.4-0.1-2.8-0.2c-0.2,0-0.2-0.1-0.2-0.1c0.1-0.1,1.9-0.3,2-0.2c0,0,0.3,0,0.6,0c0.4,0,0.5,0,0.5-0.1
	c0.1-0.3,0.2-4.1,0.2-4.6c0-0.5-0.1-0.6-0.2-0.5c0,0.1-0.1,0.1-0.2,0.1l0,0c0,0.1,0,0.2,0,0.2c-0.2,0.2-0.6,0.8-0.6,0.7
	c0-0.1,0,0-0.2,0.1c-0.5,0.5-0.9,0.6-3.5,0.8c-2.2,0.1-3.6,0-3.6-0.4c0-0.1,0.1-0.2,0.1-0.3c0.2-0.3,0.8-0.8,0.8-0.8s0,0,0.1-0.1
	c0.2-0.3,2-1.4,2-1.3c0,0,0,0,0.1,0c0.1-0.1,0.5-0.3,0.6-0.2c0,0,0.1,0,0,0c-0.1-0.1,0.8-0.4,1.8-0.6c0.6-0.1,1.1-0.2,1.7-0.1h0.8
	v-0.2c0-0.1-0.1-0.4-0.1-0.5c-0.3-0.3-0.3-0.4-0.3-0.5c0,0,0-0.1-0.1-0.1c-0.1-0.1-0.1-0.1-0.1-0.2c0-0.1-0.1-0.1-0.1-0.2
	c-0.1-0.1-0.1-0.1-0.1-0.2c0.1-0.1-1.1-0.7-1.8-0.8c-0.4-0.1-1-0.2-1.4-0.3c-0.4,0-0.8-0.1-1.1-0.1c-0.6-0.1-2.6,0-2.9,0.2
	c-0.2,0.1-0.4,0.1-0.4,0.1s-0.2,0.2-0.4,0.4c-0.2,0.3-0.4,0.5-0.5,0.6c-0.1,0.1-0.1,0.1-0.1,0.2c0,0.1-0.3,0.5-1.6,2.4
	c-0.3,0.5-0.6,0.8-0.6,0.8l0,0c0,0,0,0.2-0.1,0.3c-0.2,0.2-0.2,0.2-0.2,0.1c0-0.2,0.6-1.7,0.7-1.7c0,0,0.1,0,0-0.1
	c-0.1-0.1,0.2-0.6,0.3-0.6c0,0,0.1,0,0,0c0,0,0.1-0.4,0.2-0.7c0.3-0.8,0.3-1.1,0-1.2c-0.6-0.3-1.1-0.3-5.7-0.3c-2.8,0-4.8,0-5.2,0.1
	c-0.6,0.1-0.6,0.1-0.9,0.3c-0.2,0.2-0.2,0.3-0.2,0.6c0,0.2,0,0.4,0.1,0.4s0.2,0.4,0.2,0.6c0,0.1,0,0.1,0,0.1c0.1,0,1,2.2,1,2.4
	c0,0.2,0,0.3-0.1,0.1c-0.1-0.1-0.2-0.2-0.2-0.5c0,0,0,0-0.1,0c-0.1,0-0.3-0.3-0.3-0.4c0,0,0-0.1-0.1-0.1c-0.1-0.1-0.7-1.1-0.6-1.2
	c0,0,0-0.1,0,0c-0.1,0.1-0.6-0.8-0.6-0.9l0,0c0,0-0.2-0.1-0.3-0.3c-0.1-0.2-0.3-0.4-0.5-0.6c-0.3-0.3-0.6-0.4-2.4-0.7
	C23.7,21.1,23,21,22.9,21s0.7,0,1.9,0c1.9,0,2.1,0,2.3-0.1c0.1-0.1,0.3-0.2,0.3-0.2s0.2-0.1,0.3-0.2c0.2-0.1,0.7-0.1,4-0.1
	c2.5,0,3.9,0,3.9-0.1c0-0.1-0.2-0.4-0.5-0.6c-0.1-0.1-0.1-0.1,0-0.2c0-0.1,0-0.1,0,0c0,0-0.3-0.2-0.5-0.4c-0.6-0.8-1.7-2.1-1.7-2.1
	s-0.1-0.1-0.2-0.3C32.5,16.6,32,16,32,15.9c0-0.3-4.7,0.1-6,0.4c-0.4,0.1-1.1,0.4-1.1,0.4c-0.1,0.1-0.5,0.4-0.5,0.3c0,0,0,0-0.1,0
	c-0.1,0.1-1.7,1.2-1.7,1.2c-0.1,0-0.1,0-0.1,0.1c0,0-0.2,0.3-0.6,0.6c-0.5,0.4-0.6,0.5-0.4,0.2c0.5-0.6,0.8-1,0.9-1
	c0,0,0.1,0,0.1-0.1s0-0.1,0.1-0.1s0.1,0,0.1-0.1c-0.1-0.2,2-1.9,2.3-1.8c0.1,0,0.1,0,0,0c-0.1-0.1,0.6-0.4,1.4-0.5
	c0.6-0.1,2.7-0.3,3.7-0.4C32.2,15.3,36.8,15.3,38.1,15.4z M21.9,25.2C22,25.2,22,25.2,21.9,25.2c0,0.1-0.1,0-0.2,0
	c-0.1,0-0.1-0.1,0-0.1C21.8,25.1,21.9,25.1,21.9,25.2z M24.6,26c0.1,0.1,0.2,0.1,0.3,0.1c0.3,0,0.5,0.1,0.4,0.2c0,0.1,0,0.1,0,0
	c0,0,0.3,0.1,0.6,0.2c0.6,0.3,0.6,0.4,0.6,0.6c0,0.1-0.3,0.4-0.4,0.3c0,0-0.1,0-0.1,0.1s-0.7,0.1-2.2,0.1c-1.2,0-2.2,0-2.2-0.1
	s0.6-0.2,1.8-0.2c1.7,0,2.6-0.1,2.5-0.3c0,0-0.2-0.2-0.4-0.3s-0.4-0.2-0.3-0.3l0,0c-0.1,0-0.2,0-0.4-0.1c-0.4-0.2-1.4-0.7-1.5-0.7
	S22,25.2,22,25.1C22.1,25.1,24.3,25.9,24.6,26z M48.2,28.7c0.7,0.6,0.4,1.8-0.6,1.8c-0.3,0-0.7-0.2-0.7-0.3c0,0-0.1-0.1-0.1-0.2
	c-0.1-0.1-0.1-0.1,0-0.1c0.1,0,0.1,0,0.1,0.1c0,0.1,0.2,0.2,0.4,0.2c0,0,0.2-0.1,0.3-0.2c0.2-0.2,0.2-0.2,0.2-0.5
	c0-0.4-0.2-0.5-0.6-0.5c-0.3,0-0.6,0.3-0.5,0.6c0,0.2,0,0.2-0.1,0.2c0,0-0.1-0.2-0.1-0.3C46.7,28.8,47.6,28.2,48.2,28.7z"/>
</svg>
